<svg width="30" height="29" viewBox="0 0 30 29" fill="none" xmlns="http://www.w3.org/2000/svg">
<path fill-rule="evenodd" clip-rule="evenodd" d="M29.234 14.4254C29.234 22.3923 22.6897 28.8508 14.617 28.8508C6.54425 28.8508 0 22.3923 0 14.4254C0 6.45848 6.54425 0 14.617 0C22.6897 0 29.234 6.45848 29.234 14.4254ZM28.0646 14.4254C28.0646 21.755 22.0439 27.6968 14.617 27.6968C7.19007 27.6968 1.16936 21.755 1.16936 14.4254C1.16936 7.09583 7.19007 1.15403 14.617 1.15403C22.0439 1.15403 28.0646 7.09583 28.0646 14.4254ZM12.2783 11.5403V12.1173H13.4476V21.3496H12.2783V21.9266H13.4476H15.7864H16.9557V21.3496H15.7864V11.5403H13.4476H12.2783ZM16.371 8.65524C16.371 9.61128 15.5857 10.3863 14.617 10.3863C13.6483 10.3863 12.863 9.61128 12.863 8.65524C12.863 7.69921 13.6483 6.9242 14.617 6.9242C15.5857 6.9242 16.371 7.69921 16.371 8.65524Z" fill="#2B4074"/>
</svg>
