<svg width="29" height="29" viewBox="0 0 29 29" fill="none" xmlns="http://www.w3.org/2000/svg">
<path fill-rule="evenodd" clip-rule="evenodd" d="M19.3887 3.26488C23.41 7.28614 23.7115 13.6335 20.3213 18.0942L29.0447 26.8177L26.9776 28.8849L18.2743 20.1816C13.8057 23.719 7.34056 23.4644 3.26488 19.3887C-1.12923 14.9946 -1.08192 7.82302 3.37055 3.37055C7.82302 -1.08192 14.9946 -1.12923 19.3887 3.26488ZM18.5618 4.09174C22.5053 8.03517 22.4628 14.4712 18.467 18.467C14.4712 22.4628 8.03517 22.5053 4.09174 18.5618C0.148311 14.6184 0.190769 8.18238 4.18657 4.18657C8.18238 0.190767 14.6184 0.14831 18.5618 4.09174Z" fill="#2B4074"/>
</svg>
